<svg width="45.402" height="45.402" xmlns="http://www.w3.org/2000/svg">

 <g>
  <title>background</title>
  <rect fill="none" id="canvas_background" height="402" width="582" y="-1" x="-1"/>
 </g>
 <g>
  <title>Layer 1</title>
  <g id="svg_1">
   <path fill="#bb9f89" id="svg_2" d="m41.267,18.557l-14.435,0l0,-14.423c0,-2.283 -1.842,-4.134 -4.125,-4.134c-2.283,0 -4.124,1.851 -4.124,4.135l0,14.432l-14.442,0c-2.283,0 -4.139,1.851 -4.138,4.135c-0.001,1.141 0.46,2.187 1.207,2.934c0.748,0.749 1.78,1.222 2.92,1.222l14.453,0l0,14.412c0,1.142 0.453,2.176 1.201,2.922c0.748,0.748 1.777,1.211 2.919,1.211c2.282,0 4.129,-1.851 4.129,-4.133l0,-14.413l14.435,0c2.283,0 4.134,-1.867 4.133,-4.15c-0.001,-2.282 -1.852,-4.15 -4.133,-4.15z"/>
  </g>
  <g id="svg_3"/>
  <g id="svg_4"/>
  <g id="svg_5"/>
  <g id="svg_6"/>
  <g id="svg_7"/>
  <g id="svg_8"/>
  <g id="svg_9"/>
  <g id="svg_10"/>
  <g id="svg_11"/>
  <g id="svg_12"/>
  <g id="svg_13"/>
  <g id="svg_14"/>
  <g id="svg_15"/>
  <g id="svg_16"/>
  <g id="svg_17"/>
 </g>
</svg>